<svg xmlns="http://www.w3.org/2000/svg" xmlns:svg="http://www.w3.org/2000/svg" xmlns:xlink="http://www.w3.org/1999/xlink" id="svg7564" x="0" y="0" enable-background="new -360 278.6 16 16" version="1.1" viewBox="-360 278.6 16 16" xml:space="preserve"><style type="text/css">.st0{fill:#66c4b6}.st1{fill:#efa143}.st2{fill:#4e9386}.st3{fill:#211d1f}.st4{fill:#16090d}</style><g><path d="M-349.5,284.3h-9.6c-0.1,0-0.2,0-0.2,0.1c-0.1,0.1-0.1,0.2-0.1,0.2c0.2,3.3,1.5,6.2,3.2,7.8 c0.1,0,0.1,0.1,0.2,0.1h5.6c0.1,0,0.2,0,0.2-0.1c1.8-1.6,3-4.5,3.2-7.8c0-0.1,0-0.2-0.1-0.2s-0.1-0.1-0.2-0.1h-1.4" class="st0"/><g><path d="M-354.9,293.6h5.7c0.3,0,0.6-0.3,0.6-0.6s-0.3-0.6-0.6-0.6h-8.1c-0.3,0-0.6,0.3-0.6,0.6s0.3,0.6,0.6,0.6h1.5" class="st1"/><path d="M-347.1,285.6c-0.1,0.4-0.1,0.8-0.2,1.2c0.9,0.1,1.5,0.8,1.5,1.7c0,0.9-0.8,1.7-1.7,1.7 c-0.3,0-0.7-0.1-0.9-0.3c-0.2,0.4-0.4,0.7-0.6,1c0.4,0.3,1,0.4,1.5,0.4c1.6,0,2.9-1.3,2.9-2.9C-344.5,287-345.7,285.8-347.1,285.6 z" class="st1"/></g><path d="M-355.2,292.2c-1.8-1.6-3.1-3.7-3.4-7.7c0,0,0,0,0,0h-0.3c-0.1,0-0.2,0-0.2,0.1s-0.1,0.1-0.1,0.2 c0.2,3.1,1.4,5.8,3.1,7.3c0.1,0,0.1,0.1,0.2,0.1L-355.2,292.2C-355.2,292.2-355.2,292.2-355.2,292.2z" class="st2"/><g><path d="M-346.8,285.4c0-0.2,0.1-0.5,0.1-0.8c0-0.2,0-0.3-0.1-0.4c-0.1-0.1-0.3-0.2-0.4-0.2h-1.4 c-0.1,0-0.2,0.1-0.2,0.2c0,0.1,0.1,0.2,0.2,0.2h1.4c0,0,0,0,0.1,0c0,0,0,0,0,0.1c0,0.3-0.1,0.6-0.1,0.9c0,0,0,0,0,0 c-0.1,0.4-0.1,0.8-0.2,1.1c0,0,0,0,0,0c-0.2,1.1-0.6,2.1-1,3c0,0,0,0,0,0c-0.2,0.4-0.4,0.7-0.6,1c0,0,0,0,0,0 c-0.4,0.5-0.8,1-1.2,1.4c0,0,0,0,0,0h-5.6c0,0,0,0,0,0c-1.7-1.5-2.9-4.4-3.2-7.6c0,0,0,0,0-0.1c0,0,0,0,0.1,0h9.6 c0.1,0,0.2-0.1,0.2-0.2c0-0.1-0.1-0.2-0.2-0.2h-9.6c-0.2,0-0.3,0.1-0.4,0.2s-0.2,0.3-0.1,0.4c0.2,3.1,1.3,5.9,3,7.6h-0.5 c-0.4,0-0.8,0.4-0.8,0.8c0,0.4,0.4,0.8,0.8,0.8h1.5c0.1,0,0.2-0.1,0.2-0.2c0-0.1-0.1-0.2-0.2-0.2h-1.5c-0.2,0-0.3-0.1-0.3-0.3 c0-0.2,0.1-0.3,0.3-0.3h1.2h5.6h1.2c0.2,0,0.3,0.1,0.3,0.3c0,0.2-0.1,0.3-0.3,0.3h-5.7c-0.1,0-0.2,0.1-0.2,0.2 c0,0.1,0.1,0.2,0.2,0.2h5.7c0.4,0,0.8-0.4,0.8-0.8c0-0.4-0.4-0.8-0.8-0.8h-0.5c0.3-0.3,0.6-0.6,0.8-1c0.4,0.2,0.9,0.4,1.4,0.4 c1.7,0,3.1-1.4,3.1-3.1C-344.3,286.9-345.4,285.7-346.8,285.4z M-347.1,287c0.6,0.2,1.1,0.7,1.1,1.4c0,0.8-0.7,1.5-1.5,1.5 c-0.2,0-0.4,0-0.6-0.1C-347.6,288.9-347.3,288-347.1,287z M-347.4,291.1c-0.4,0-0.8-0.1-1.2-0.3c0,0,0,0,0,0c0,0,0,0,0,0 c0-0.1,0.1-0.1,0.1-0.2c0,0,0,0,0,0c0.1-0.1,0.1-0.2,0.2-0.4c0.3,0.1,0.5,0.2,0.8,0.2c1.1,0,1.9-0.9,1.9-1.9c0-0.5-0.2-1-0.5-1.3 c-0.3-0.3-0.6-0.5-1-0.6c0,0,0,0,0,0c0-0.2,0.1-0.4,0.1-0.7c1.2,0.3,2.1,1.3,2.1,2.6C-344.8,289.9-346,291.1-347.4,291.1z" class="st3"/><path d="M-353.3,281.3c-0.4,0.3-0.5,0.7-0.5,1.1c0,0.6,0.5,1.1,0.5,1.1c0,0,0.1,0.1,0.2,0.1c0.1,0,0.1,0,0.2-0.1 c0.1-0.1,0.1-0.3,0-0.3c0,0-0.4-0.3-0.4-0.7c0-0.2,0.1-0.5,0.4-0.7c0.4-0.3,0.5-0.7,0.5-1.1c0-0.6-0.5-1.1-0.5-1.1 c-0.1-0.1-0.3-0.1-0.3,0c-0.1,0.1-0.1,0.3,0,0.3c0,0,0.4,0.3,0.4,0.7C-352.9,280.8-353,281.1-353.3,281.3z" class="st4"/><path d="M-351.7,281.9c-0.3,0.2-0.4,0.5-0.4,0.8c0,0.4,0.3,0.8,0.4,0.8c0,0,0.1,0.1,0.2,0.1c0.1,0,0.1,0,0.2-0.1 c0.1-0.1,0.1-0.3,0-0.3c0,0-0.2-0.2-0.2-0.4c0-0.1,0.1-0.3,0.2-0.4c0.3-0.2,0.4-0.5,0.4-0.8c0-0.4-0.3-0.8-0.4-0.8 c-0.1-0.1-0.3-0.1-0.3,0c-0.1,0.1-0.1,0.3,0,0.3c0,0,0.2,0.2,0.2,0.4C-351.4,281.6-351.5,281.7-351.7,281.9z" class="st4"/><path d="M-355.2,281.9c-0.3,0.2-0.4,0.5-0.4,0.8c0,0.4,0.3,0.8,0.4,0.8c0,0,0.1,0.1,0.2,0.1c0.1,0,0.1,0,0.2-0.1 c0.1-0.1,0.1-0.3,0-0.3c0,0-0.2-0.2-0.2-0.4c0-0.1,0.1-0.3,0.2-0.4c0.3-0.2,0.4-0.5,0.4-0.8c0-0.4-0.3-0.8-0.4-0.8 c-0.1-0.1-0.3-0.1-0.3,0c-0.1,0.1-0.1,0.3,0,0.3c0,0,0.2,0.2,0.2,0.4C-355,281.6-355,281.7-355.2,281.9z" class="st4"/></g></g></svg>