<svg xmlns="http://www.w3.org/2000/svg" xmlns:svg="http://www.w3.org/2000/svg" xmlns:xlink="http://www.w3.org/1999/xlink" id="svg7564" x="0" y="0" enable-background="new -376 262.6 48 48" version="1.1" viewBox="-376 262.6 48 48" xml:space="preserve"><style type="text/css">.st0{fill:url(#rect2801_1_)}.st0,.st1,.st2{opacity:.4;enable-background:new}.st1{fill:url(#rect3696_1_)}.st2{fill:url(#rect3700_1_)}.st3{fill:url(#rect6994_1_)}.st4,.st5{fill:none;stroke:url(#rect7002_1_)}.st5{stroke:url(#rect6998_1_);stroke-width:1}.st6{opacity:.6}.st7{opacity:.5;fill:#b9b9b9;enable-background:new}.st8{fill:#66c4b6}.st9{fill:#efa143}.st10{fill:#4e9386}.st11{fill:#211d1f}.st12{fill:#16090d}</style><g id="layer1" transform="translate(0,-924.36218)"><g id="g7796"><radialGradient id="rect2801_1_" cx="-764.75" cy="1350.39" r="1.397" gradientTransform="matrix(5.0777 0 0 -1.5188 3550.1682 3283.3308)" gradientUnits="userSpaceOnUse"><stop offset="0" stop-color="#181818"/><stop offset="1" stop-color="#181818" stop-opacity="0"/></radialGradient><rect id="rect2801" width="7.1" height="4.2" x="-333" y="1230.2" class="st0"/><radialGradient id="rect3696_1_" cx="-891.177" cy="1535.334" r="1.397" gradientTransform="matrix(-5.0777 0 0 1.5188 -4896.1265 -1099.5588)" gradientUnits="userSpaceOnUse"><stop offset="0" stop-color="#181818"/><stop offset="1" stop-color="#181818" stop-opacity="0"/></radialGradient><rect id="rect3696" width="7.1" height="4.2" x="-378.1" y="1230.2" class="st1"/><linearGradient id="rect3700_1_" x1="-671.209" x2="-671.209" y1="1309.085" y2="1312.068" gradientTransform="matrix(3.0714 0 0 -1.4286 1709.5717 3104.5938)" gradientUnits="userSpaceOnUse"><stop offset="0" stop-color="#181818" stop-opacity="0"/><stop offset=".5" stop-color="#181818"/><stop offset="1" stop-color="#181818" stop-opacity="0"/></linearGradient><rect id="rect3700" width="38.1" height="4.2" x="-371" y="1230.2" class="st2"/></g><linearGradient id="rect6994_1_" x1="-729.818" x2="-714.369" y1="1594.094" y2="1594.094" gradientTransform="matrix(0 2.8022 3.0267 0 -5176.856 3234.5598)" gradientUnits="userSpaceOnUse"><stop offset="0" stop-color="#F4F4F4"/><stop offset="1" stop-color="#DBDBDB"/></linearGradient><path id="rect6994" d="M-329.4,1190.5v41.2c0,0.6-0.5,1.1-1.1,1.1h-42.9c-0.6,0-1.1-0.5-1.1-1.1v-41.2 c0-0.6,0.5-1.1,1.1-1.1h42.9C-329.9,1189.5-329.4,1189.9-329.4,1190.5z" class="st3"/><linearGradient id="rect7002_1_" x1="-687.326" x2="-662.585" y1="1708.917" y2="1708.917" gradientTransform="matrix(0 1.7414 2.1957 0 -4104.1865 2386.4658)" gradientUnits="userSpaceOnUse"><stop offset="0" stop-color="#FFF"/><stop offset=".018" stop-color="#FFF" stop-opacity=".235"/><stop offset=".983" stop-color="#FFF" stop-opacity=".157"/><stop offset="1" stop-color="#FFF" stop-opacity=".392"/></linearGradient><path id="rect7002" d="M-329.6,1190.5v41.2c0,0.5-0.4,0.8-0.9,0.8h-42.9c-0.5,0-0.9-0.4-0.9-0.8v-41.2 c0-0.5,0.4-0.8,0.9-0.8h42.9C-330,1189.7-329.6,1190.1-329.6,1190.5z" class="st4"/><linearGradient id="rect6998_1_" x1="-935.425" x2="-909.808" y1="1705.255" y2="1705.255" gradientTransform="matrix(0 -1.7759 2.2391 0 -4170.2896 -427.3275)" gradientUnits="userSpaceOnUse"><stop offset="0" stop-color="#000" stop-opacity=".318"/><stop offset="1" stop-color="#000" stop-opacity=".24"/></linearGradient><path id="rect6998" d="M-329.2,1231.7v-41.2c0-0.7-0.6-1.3-1.3-1.3h-42.9c-0.7,0-1.3,0.6-1.3,1.3v41.2 c0,0.7,0.6,1.3,1.3,1.3h42.9C-329.8,1233-329.2,1232.4-329.2,1231.7z" class="st5"/><g id="g8367" class="st6"><rect id="rect15710" width="45.1" height=".4" x="-374.6" y="1198" class="st7"/><rect id="rect15712" width="45.1" height=".4" x="-374.6" y="1206.9" class="st7"/><rect id="rect16848" width="45.1" height=".4" x="-374.6" y="1215.8" class="st7"/><rect id="rect7153" width="45.1" height=".4" x="-374.6" y="1224.7" class="st7"/></g></g><g><path d="M-344.9,280.3h-24.6c-0.2,0-0.4,0.1-0.6,0.3c-0.2,0.2-0.2,0.4-0.2,0.6c0.6,8.8,3.7,16.5,8.3,20.7 c0.2,0.1,0.3,0.2,0.5,0.2h14.3c0.2,0,0.4-0.1,0.5-0.2c4.6-4.2,7.7-11.9,8.3-20.7c0-0.2-0.1-0.5-0.2-0.6c-0.2-0.2-0.4-0.3-0.6-0.3 h-3.6" class="st8"/><g><path d="M-358.7,305.1h14.6c0.8,0,1.5-0.7,1.5-1.5s-0.7-1.5-1.5-1.5h-20.7c-0.8,0-1.5,0.7-1.5,1.5s0.7,1.5,1.5,1.5h4" class="st9"/><path d="M-338.6,283.8c-0.1,1-0.3,2.1-0.5,3.1c2.2,0.2,4,2.2,4,4.5c0,2.5-2,4.5-4.4,4.5c-0.9,0-1.7-0.3-2.4-0.7 c-0.5,1-1,1.9-1.5,2.7c1.1,0.7,2.4,1.1,3.9,1.1c4.1,0,7.4-3.4,7.4-7.7C-332.2,287.5-335,284.3-338.6,283.8z" class="st9"/></g><path d="M-359.5,301.4c-4.5-4.1-7.9-9.8-8.7-20.4c0,0,0-0.1,0-0.1h-0.8c-0.2,0-0.4,0.1-0.6,0.3s-0.2,0.4-0.2,0.6 c0.6,8.3,3.5,15.6,7.8,19.5c0.1,0.1,0.3,0.2,0.5,0.2L-359.5,301.4C-359.5,301.4-359.5,301.4-359.5,301.4z" class="st10"/><g><path d="M-337.9,283.3c0.1-0.7,0.1-1.3,0.2-2c0-0.4-0.1-0.8-0.4-1.1c-0.3-0.3-0.7-0.5-1.1-0.5h-3.6 c-0.3,0-0.6,0.3-0.6,0.6s0.3,0.6,0.6,0.6h3.6c0.1,0,0.1,0,0.1,0.1c0,0,0.1,0.1,0,0.2c-0.1,0.9-0.2,1.7-0.2,2.5c0,0,0,0,0,0 c-0.1,1-0.3,2-0.5,3c0,0,0,0,0,0c-0.6,3-1.5,5.7-2.7,8.1c0,0,0,0,0,0c-0.4,0.9-0.9,1.8-1.5,2.6c0,0,0,0,0,0.1 c-0.9,1.4-2,2.7-3.1,3.8c0,0-0.1,0-0.1,0h-14.3c0,0-0.1,0-0.1,0c-4.5-4.1-7.5-11.6-8.1-20.2c0-0.1,0-0.1,0.1-0.2 c0,0,0.1-0.1,0.1-0.1h24.6c0.3,0,0.6-0.3,0.6-0.6s-0.3-0.6-0.6-0.6h-24.6c-0.4,0-0.8,0.2-1.1,0.5c-0.3,0.3-0.4,0.7-0.4,1.1 c0.6,8.3,3.4,15.7,7.6,20.2h-1.3c-1.1,0-2.1,1-2.1,2.2s0.9,2.2,2.1,2.2h4c0.3,0,0.6-0.3,0.6-0.6c0-0.4-0.3-0.6-0.6-0.6h-4 c-0.5,0-0.8-0.4-0.8-0.9c0-0.5,0.4-0.9,0.8-0.9h3.2h14.3h3.2c0.5,0,0.8,0.4,0.8,0.9c0,0.5-0.4,0.9-0.8,0.9h-14.7 c-0.3,0-0.6,0.3-0.6,0.6c0,0.4,0.3,0.6,0.6,0.6h14.6c1.1,0,2.1-1,2.1-2.2s-0.9-2.2-2.1-2.2h-1.3c0.7-0.8,1.4-1.7,2.1-2.6 c1.1,0.6,2.4,0.9,3.7,0.9c4.4,0,8-3.7,8-8.3C-331.6,287.5-334.3,284.1-337.9,283.3z M-338.7,287.7c1.6,0.4,2.8,2,2.8,3.8 c0,2.1-1.7,3.9-3.7,3.9c-0.5,0-1.1-0.1-1.5-0.3C-340.1,292.8-339.3,290.3-338.7,287.7z M-339.6,298.5c-1,0-2.1-0.3-3-0.7 c0,0,0,0,0,0c0,0,0.1-0.1,0.1-0.1c0.1-0.2,0.2-0.3,0.3-0.5c0,0,0,0,0,0c0.2-0.3,0.3-0.6,0.5-0.9c0.7,0.3,1.4,0.5,2.1,0.5 c2.7,0,5-2.3,5-5.2c0-1.3-0.5-2.5-1.3-3.5c-0.7-0.8-1.6-1.3-2.5-1.5c0,0,0,0,0,0c0.1-0.6,0.2-1.2,0.3-1.8c3.1,0.7,5.3,3.5,5.3,6.9 C-332.8,295.3-335.8,298.5-339.6,298.5z" class="st11"/><path d="M-354.6,272.4c-0.9,0.8-1.3,1.8-1.3,2.8c0,1.7,1.3,2.8,1.3,2.9c0.1,0.1,0.3,0.2,0.4,0.2 c0.2,0,0.3-0.1,0.5-0.2c0.2-0.3,0.2-0.7-0.1-0.9c0,0-0.9-0.8-0.9-1.9c0-0.6,0.3-1.3,0.9-1.8c0.9-0.9,1.3-1.8,1.3-2.8 c0-1.7-1.3-2.8-1.3-2.9c-0.3-0.2-0.7-0.2-0.9,0.1c-0.2,0.3-0.2,0.7,0.1,0.9c0,0,0.9,0.8,0.9,1.9 C-353.6,271.2-353.9,271.8-354.6,272.4z" class="st12"/><path d="M-350.4,273.9c-0.7,0.6-1,1.3-1,2.1c0,1.2,0.9,2,1,2.1c0.1,0.1,0.3,0.2,0.4,0.2c0.2,0,0.3-0.1,0.5-0.2 c0.2-0.3,0.2-0.7-0.1-0.9c0,0-0.5-0.5-0.6-1.1c0-0.4,0.2-0.7,0.6-1.1c0.7-0.6,1-1.3,1-2.1c0-1.2-0.9-2-1-2.1 c-0.3-0.2-0.7-0.2-0.9,0.1c-0.2,0.3-0.2,0.7,0.1,0.9c0,0,0.5,0.5,0.6,1.1C-349.8,273.2-350,273.6-350.4,273.9z" class="st12"/><path d="M-359.4,273.9c-0.7,0.6-1,1.3-1,2.1c0,1.2,0.9,2,1,2.1c0.1,0.1,0.3,0.2,0.4,0.2c0.2,0,0.3-0.1,0.5-0.2 c0.2-0.3,0.2-0.7-0.1-0.9c0,0-0.5-0.5-0.6-1.1c0-0.4,0.2-0.7,0.6-1.1c0.7-0.6,1-1.3,1-2.1c0-1.2-0.9-2-1-2.1 c-0.3-0.2-0.7-0.2-0.9,0.1c-0.2,0.3-0.2,0.7,0.1,0.9c0,0,0.5,0.5,0.6,1.1C-358.9,273.2-359,273.6-359.4,273.9z" class="st12"/></g></g></svg>