<svg xmlns="http://www.w3.org/2000/svg" xmlns:svg="http://www.w3.org/2000/svg" xmlns:xlink="http://www.w3.org/1999/xlink" id="svg7564" x="0" y="0" enable-background="new -412.5 232.8 121 107.8" version="1.1" viewBox="-412.5 232.8 121 107.8" xml:space="preserve"><style type="text/css">.st0{fill:url(#rect2801_1_)}.st0,.st1,.st2{opacity:.4;enable-background:new}.st1{fill:url(#rect3696_1_)}.st2{fill:url(#rect3700_1_)}.st3{fill:url(#rect6994_1_)}.st4,.st5{fill:none;stroke:url(#rect7002_1_)}.st5{stroke:url(#rect6998_1_);stroke-width:1}.st6{opacity:.6}.st7{opacity:.5;fill:#b9b9b9;enable-background:new}.st8{fill:#66c4b6}.st9{fill:#efa143}.st10{fill:#4e9386}.st11{fill:#211d1f}.st12{fill:#16090d}</style><g id="layer1" transform="translate(0,-924.36218)"><g id="g7796"><radialGradient id="rect2801_1_" cx="-760.442" cy="1335.904" r="2.499" gradientTransform="matrix(6.4121 0 0 -1.8451 4567.0122 3722.5869)" gradientUnits="userSpaceOnUse"><stop offset="0" stop-color="#181818"/><stop offset="1" stop-color="#181818" stop-opacity="0"/></radialGradient><rect id="rect2801" width="16" height="9.2" x="-309" y="1253.1" class="st0"/><radialGradient id="rect3696_1_" cx="-889.572" cy="1549.82" r="2.499" gradientTransform="matrix(-6.4121 0 0 1.8451 -6099.0122 -1601.778)" gradientUnits="userSpaceOnUse"><stop offset="0" stop-color="#181818"/><stop offset="1" stop-color="#181818" stop-opacity="0"/></radialGradient><rect id="rect3696" width="16" height="9.2" x="-411" y="1253.1" class="st1"/><linearGradient id="rect3700_1_" x1="-671.209" x2="-671.209" y1="1289.537" y2="1296.02" gradientTransform="matrix(3.0714 0 0 -1.4286 1709.5717 3104.5938)" gradientUnits="userSpaceOnUse"><stop offset="0" stop-color="#181818" stop-opacity="0"/><stop offset=".5" stop-color="#181818"/><stop offset="1" stop-color="#181818" stop-opacity="0"/></linearGradient><rect id="rect3700" width="86" height="9.2" x="-395" y="1253.1" class="st2"/></g><linearGradient id="rect6994_1_" x1="-738.701" x2="-705.121" y1="1594.094" y2="1594.094" gradientTransform="matrix(0 2.8022 3.0267 0 -5176.856 3234.5598)" gradientUnits="userSpaceOnUse"><stop offset="0" stop-color="#F4F4F4"/><stop offset="1" stop-color="#DBDBDB"/></linearGradient><path id="rect6994" d="M-301,1166.9v89.5c0,1.3-1.1,2.3-2.5,2.3h-97c-1.4,0-2.5-1-2.5-2.3v-89.5c0-1.3,1.1-2.3,2.5-2.3 h97C-302.1,1164.6-301,1165.6-301,1166.9z" class="st3"/><linearGradient id="rect7002_1_" x1="-700.984" x2="-648.341" y1="1708.917" y2="1708.917" gradientTransform="matrix(0 1.7414 2.1957 0 -4104.1865 2386.4658)" gradientUnits="userSpaceOnUse"><stop offset="0" stop-color="#FFF"/><stop offset=".018" stop-color="#FFF" stop-opacity=".235"/><stop offset=".983" stop-color="#FFF" stop-opacity=".157"/><stop offset="1" stop-color="#FFF" stop-opacity=".392"/></linearGradient><path id="rect7002" d="M-301.5,1166.9v89.5c0,1-0.9,1.8-2,1.8h-97c-1.1,0-2-0.8-2-1.8v-89.5c0-1,0.9-1.8,2-1.8h97 C-302.4,1165-301.5,1165.9-301.5,1166.9z" class="st4"/><linearGradient id="rect6998_1_" x1="-950.158" x2="-895.65" y1="1705.255" y2="1705.255" gradientTransform="matrix(0 -1.7759 2.2391 0 -4170.2896 -427.3275)" gradientUnits="userSpaceOnUse"><stop offset="0" stop-color="#000" stop-opacity=".318"/><stop offset="1" stop-color="#000" stop-opacity=".24"/></linearGradient><path id="rect6998" d="M-300.5,1256.4v-89.5c0-1.5-1.3-2.8-3-2.8h-97c-1.7,0-3,1.2-3,2.8v89.5c0,1.5,1.3,2.8,3,2.8h97 C-301.8,1259.1-300.5,1257.9-300.5,1256.4z" class="st5"/><g id="g8367" class="st6"><rect id="rect15710" width="102" height=".9" x="-403" y="1183" class="st7"/><rect id="rect15712" width="102" height=".9" x="-403" y="1202.4" class="st7"/><rect id="rect16848" width="102" height=".9" x="-403" y="1221.8" class="st7"/><rect id="rect7153" width="102" height=".9" x="-403" y="1241.1" class="st7"/></g></g><g><path d="M-336,273.3h-55.6c-0.5,0-1,0.2-1.3,0.6c-0.3,0.4-0.5,0.9-0.5,1.4c1.4,19,8.4,35.8,18.8,44.9 c0.3,0.3,0.8,0.5,1.2,0.5h32.3c0.5,0,0.9-0.1,1.2-0.5c10.4-9.1,17.4-25.9,18.8-44.9c0-0.5-0.1-1-0.5-1.4c-0.3-0.4-0.8-0.6-1.3-0.6 h-8.1" class="st8"/><g><path d="M-367.1,327.2h33.1c1.8,0,3.3-1.5,3.3-3.3c0-1.8-1.5-3.3-3.3-3.3h-46.8c-1.8,0-3.3,1.5-3.3,3.3 c0,1.8,1.5,3.3,3.3,3.3h9" class="st9"/><path d="M-321.8,280.9c-0.3,2.3-0.7,4.5-1.2,6.7c5,0.5,9,4.7,9,9.8c0,5.4-4.4,9.9-9.9,9.9c-2,0-3.8-0.6-5.3-1.5 c-1,2.1-2.2,4.1-3.4,5.9c2.5,1.6,5.5,2.5,8.7,2.5c9.2,0,16.7-7.5,16.7-16.7C-307.2,289-313.6,282-321.8,280.9z" class="st9"/></g><path d="M-369,319.1c-10.2-9-17.7-21.3-19.6-44.3c0-0.1,0-0.2,0-0.2h-1.8c-0.5,0-0.9,0.2-1.3,0.6 c-0.3,0.3-0.5,0.8-0.5,1.3c1.3,18,7.9,33.8,17.7,42.4c0.3,0.3,0.7,0.4,1.2,0.4h4.5C-368.9,319.2-368.9,319.2-369,319.1z" class="st10"/><g><path d="M-320.3,279.8c0.2-1.4,0.3-2.9,0.4-4.4c0.1-0.9-0.2-1.8-0.8-2.4c-0.6-0.7-1.5-1-2.4-1h-8.1 c-0.8,0-1.4,0.6-1.4,1.4s0.6,1.4,1.4,1.4h8.1c0.1,0,0.2,0,0.3,0.1c0.1,0.1,0.1,0.2,0.1,0.3c-0.1,1.9-0.3,3.7-0.6,5.5c0,0,0,0,0,0 c-0.3,2.2-0.7,4.4-1.2,6.6c0,0,0,0,0,0c-1.4,6.4-3.4,12.4-6.1,17.6c0,0,0,0.1,0,0.1c-1,2-2.1,4-3.3,5.7c0,0,0,0.1-0.1,0.1 c-2.1,3.1-4.5,5.9-7,8.2c-0.1,0.1-0.2,0.1-0.3,0.1h-32.3c-0.1,0-0.2,0-0.3-0.1c-10.1-8.9-16.9-25.3-18.3-44c0-0.1,0-0.2,0.1-0.3 c0.1-0.1,0.2-0.1,0.3-0.1h55.6c0.8,0,1.4-0.6,1.4-1.4s-0.6-1.4-1.4-1.4h-55.6c-0.9,0-1.7,0.4-2.4,1c-0.6,0.7-0.9,1.5-0.8,2.4 c1.3,18.1,7.7,34.2,17.1,43.9h-3c-2.6,0-4.7,2.1-4.7,4.7c0,2.6,2.1,4.7,4.7,4.7h9c0.8,0,1.4-0.6,1.4-1.4c0-0.8-0.6-1.4-1.4-1.4h-9 c-1,0-1.9-0.8-1.9-1.9c0-1,0.8-1.9,1.9-1.9h7.2h32.3h7.2c1,0,1.9,0.8,1.9,1.9c0,1-0.8,1.9-1.9,1.9h-33.2c-0.8,0-1.4,0.6-1.4,1.4 c0,0.8,0.6,1.4,1.4,1.4h33.1c2.6,0,4.7-2.1,4.7-4.7c0-2.6-2.1-4.7-4.7-4.7h-3c1.7-1.7,3.3-3.6,4.7-5.7c2.6,1.3,5.4,2,8.3,2 c10,0,18.1-8.1,18.1-18.1C-305.8,288.9-311.9,281.5-320.3,279.8z M-321.9,289.2c3.7,0.9,6.4,4.3,6.4,8.2c0,4.7-3.8,8.5-8.5,8.5 c-1.2,0-2.4-0.2-3.5-0.7C-325,300.3-323.2,295-321.9,289.2z M-323.9,312.7c-2.3,0-4.7-0.6-6.8-1.6c0,0,0-0.1,0-0.1 c0-0.1,0.1-0.2,0.2-0.3c0.2-0.3,0.4-0.6,0.6-1c0,0,0,0,0,0c0.4-0.7,0.8-1.3,1.2-2c1.5,0.7,3.1,1,4.7,1c6.2,0,11.3-5.1,11.3-11.3 c0-2.8-1-5.5-3-7.6c-1.5-1.7-3.5-2.8-5.7-3.4c0,0,0,0,0,0c0.2-1.3,0.5-2.6,0.7-3.9c6.9,1.5,12,7.7,12,14.9 C-308.6,305.9-315.5,312.7-323.9,312.7z" class="st11"/><path d="M-357.8,256.1c-2,1.8-3,3.9-3,6.1c0,3.6,2.9,6.1,3,6.2c0.2,0.2,0.6,0.3,0.9,0.3c0.4,0,0.8-0.1,1-0.5 c0.5-0.6,0.5-1.5-0.1-2c0,0-2.1-1.8-2.1-4.2c0-1.4,0.7-2.7,2.1-4c2-1.9,3-3.9,3-6.1c0-3.6-2.9-6.1-3-6.3c-0.6-0.5-1.5-0.5-2,0.1 s-0.5,1.5,0.1,2c0,0,2,1.8,2.1,4.2C-355.7,253.5-356.4,254.9-357.8,256.1z" class="st12"/><path d="M-348.4,259.4c-1.5,1.3-2.2,2.8-2.2,4.5c0,2.6,2,4.4,2.2,4.6c0.2,0.2,0.6,0.3,0.9,0.3c0.4,0,0.8-0.1,1-0.5 c0.5-0.6,0.5-1.5-0.1-2c0,0-1.2-1.2-1.3-2.5c0-0.8,0.4-1.6,1.3-2.3c1.5-1.3,2.2-2.8,2.2-4.5c0-2.6-2-4.4-2.2-4.6 c-0.6-0.5-1.5-0.5-2,0.1c-0.5,0.6-0.5,1.5,0.1,2c0,0,1.2,1.2,1.3,2.5C-347.1,257.9-347.5,258.7-348.4,259.4z" class="st12"/><path d="M-368.8,259.4c-1.5,1.3-2.2,2.8-2.2,4.5c0,2.6,2,4.4,2.2,4.6c0.2,0.2,0.6,0.3,0.9,0.3c0.4,0,0.8-0.1,1-0.5 c0.5-0.6,0.5-1.5-0.1-2c0,0-1.2-1.2-1.3-2.5c0-0.8,0.4-1.6,1.3-2.3c1.5-1.3,2.2-2.8,2.2-4.5c0-2.6-2-4.4-2.2-4.6 c-0.6-0.5-1.5-0.5-2,0.1c-0.5,0.6-0.5,1.5,0.1,2c0,0,1.2,1.2,1.3,2.5C-367.5,257.9-367.9,258.7-368.8,259.4z" class="st12"/></g></g></svg>