<svg xmlns="http://www.w3.org/2000/svg" xmlns:osb="http://www.openswatchbook.org/uri/2009/osb" xmlns:svg="http://www.w3.org/2000/svg" xmlns:xlink="http://www.w3.org/1999/xlink" id="svg7384" x="0" y="0" enable-background="new -471 273 16 16" version="1.1" viewBox="-471 273 16 16" xml:space="preserve"><style type="text/css">.st0{fill:#333}</style><title id="title9167">Gnome Symbolic Icon Theme</title><path d="M-460.4,278.5h-9.3c-0.1,0-0.2,0-0.2,0.1c-0.1,0.1-0.1,0.1-0.1,0.2c0.2,3.4,1.4,6.5,3.1,8.2	c0.1,0,0.1,0.1,0.2,0.1h5.4c0.1,0,0.2,0,0.2-0.1c1.7-1.7,2.9-4.7,3.1-8.2c0-0.1,0-0.2-0.1-0.2c-0.1,0-0.1-0.1-0.2-0.1h-1.3" class="st0"/><g><path d="M-465.7,288.3h5.6c0.3,0,0.6-0.3,0.6-0.6s-0.3-0.6-0.6-0.6h-7.8c-0.3,0-0.6,0.3-0.6,0.6s0.3,0.6,0.6,0.6h1.5" class="st0"/><path d="M-458,279.9c-0.1,0.4-0.1,0.9-0.2,1.2c0.8,0.1,1.5,0.9,1.5,1.8c0,1-0.8,1.8-1.7,1.8c-0.3,0-0.7-0.1-0.8-0.3 c-0.2,0.4-0.4,0.7-0.6,1.1c0.5,0.3,0.9,0.4,1.5,0.4c1.5,0,2.8-1.4,2.8-3C-455.6,281.4-456.7,280.1-458,279.9z" class="st0"/></g><g><path d="M-457.8,279.7c0-0.2,0.1-0.5,0.1-0.7c0-0.2,0-0.3-0.2-0.4c-0.1-0.1-0.3-0.2-0.4-0.2h-1.3 c-0.1,0-0.2,0.1-0.2,0.2c0,0.1,0.1,0.2,0.2,0.2h1.3c0,0,0,0,0.1,0c0,0,0,0,0,0.1c0,0.3-0.1,0.6-0.1,1l0,0c-0.1,0.4-0.1,0.9-0.2,1.2 l0,0c-0.2,1.2-0.6,2.2-1,3.2l0,0c-0.2,0.3-0.4,0.7-0.6,1.1l0,0c-0.4,0.5-0.8,1.1-1.2,1.5c0,0,0,0-0.1,0h-5.5c0,0,0,0-0.1,0 c-1.7-1.6-2.8-4.6-3.1-8c0,0,0,0,0-0.1c0,0,0,0,0.1,0h9.3c0.1,0,0.2-0.1,0.2-0.2s-0.1-0.2-0.2-0.2h-9.3c-0.2,0-0.3,0.1-0.4,0.2 c-0.1,0.1-0.2,0.3-0.2,0.4c0.2,3.3,1.3,6.2,2.8,8h-0.5c-0.5,0-0.8,0.4-0.8,0.9c0,0.4,0.4,0.9,0.8,0.9h1.5c0.1,0,0.2-0.1,0.2-0.2 s-0.1-0.2-0.2-0.2h-1.5c-0.2,0-0.3-0.1-0.3-0.3c0-0.2,0.1-0.3,0.3-0.3h1.2h5.4h1.2c0.2,0,0.3,0.1,0.3,0.3c0,0.2-0.1,0.3-0.3,0.3 h-5.6c-0.1,0-0.2,0.1-0.2,0.2s0.1,0.2,0.2,0.2h5.6c0.5,0,0.8-0.4,0.8-0.9c0-0.4-0.4-0.9-0.8-0.9h-0.5c0.3-0.3,0.6-0.6,0.8-1.1 c0.5,0.2,0.9,0.3,1.4,0.3c1.7,0,3-1.5,3-3.3C-455.4,281.4-456.4,280-457.8,279.7z M-458,281.4c0.7,0.2,1,0.7,1,1.5 c0,0.9-0.7,1.5-1.4,1.5c-0.2,0-0.4,0-0.6-0.1C-458.6,283.4-458.3,282.4-458,281.4z M-458.4,285.7c-0.4,0-0.8-0.1-1.1-0.3l0,0l0,0 c0-0.1,0.1-0.1,0.1-0.2l0,0c0.1-0.1,0.1-0.2,0.2-0.3c0.3,0.1,0.5,0.2,0.8,0.2c1,0,1.9-1,1.9-2c0-0.5-0.2-1-0.5-1.4 c-0.3-0.3-0.6-0.5-0.9-0.6l0,0c0-0.2,0.1-0.4,0.1-0.7c1.1,0.3,2,1.4,2,2.7C-455.9,284.5-457,285.7-458.4,285.7z" class="st0"/><path d="M-464.1,275.4c-0.4,0.3-0.5,0.7-0.5,1.1c0,0.6,0.5,1.1,0.5,1.2c0,0,0.1,0.1,0.2,0.1c0.1,0,0.1,0,0.2-0.1 c0.1-0.1,0.1-0.3,0-0.3c0,0-0.4-0.3-0.4-0.7c0-0.2,0.1-0.5,0.4-0.7c0.4-0.3,0.5-0.7,0.5-1.1c0-0.6-0.5-1.1-0.5-1.2 c-0.1-0.1-0.3-0.1-0.4,0s-0.1,0.3,0,0.3c0,0,0.4,0.3,0.4,0.7C-463.7,275-463.9,275.2-464.1,275.4z" class="st0"/><path d="M-462.5,276c-0.3,0.2-0.4,0.5-0.4,0.9c0,0.4,0.4,0.7,0.4,0.9c0,0,0.1,0.1,0.2,0.1c0.1,0,0.1,0,0.2-0.1 c0.1-0.1,0.1-0.3,0-0.3c0,0-0.2-0.2-0.2-0.4c0-0.1,0.1-0.3,0.2-0.4c0.3-0.2,0.4-0.5,0.4-0.9c0-0.4-0.4-0.7-0.4-0.9 c-0.1-0.1-0.3-0.1-0.3,0c-0.1,0.1-0.1,0.3,0,0.3c0,0,0.2,0.2,0.2,0.4C-462.3,275.7-462.4,275.8-462.5,276z" class="st0"/><path d="M-466,276c-0.3,0.2-0.4,0.5-0.4,0.9c0,0.4,0.4,0.7,0.4,0.9c0,0,0.1,0.1,0.2,0.1c0.1,0,0.1,0,0.2-0.1 c0.1-0.1,0.1-0.3,0-0.3c0,0-0.2-0.2-0.2-0.4c0-0.1,0.1-0.3,0.2-0.4c0.3-0.2,0.4-0.5,0.4-0.9c0-0.4-0.4-0.7-0.4-0.9 c-0.1-0.1-0.3-0.1-0.3,0c-0.1,0.1-0.1,0.3,0,0.3c0,0,0.2,0.2,0.2,0.4C-465.7,275.7-465.8,275.8-466,276z" class="st0"/></g></svg>