<svg xmlns="http://www.w3.org/2000/svg" xmlns:osb="http://www.openswatchbook.org/uri/2009/osb" xmlns:svg="http://www.w3.org/2000/svg" id="svg7384" width="16" height="16" enable-background="new" version="1.1"><metadata id="metadata90"/><title id="title8473">Paper Symbolic Icon Theme</title><defs id="defs7386"><linearGradient id="linearGradient5606" osb:paint="solid"><stop id="stop5608" offset="0" stop-color="#000" stop-opacity="1"/></linearGradient><filter id="filter7554" color-interpolation-filters="sRGB"><feBlend id="feBlend7556" in2="BackgroundImage" mode="darken"/></filter></defs><g id="layer12" display="inline" transform="translate(-265.0004,-180.99664)"><path id="path4743" fill="#444" fill-opacity="1" stroke="none" stroke-dasharray="none" stroke-linecap="square" stroke-linejoin="round" stroke-miterlimit="4" stroke-opacity="1" stroke-width="2" d="m 270.0002,185 a 1,1 0 0 0 -1,1 1,1 0 0 0 0.29297,0.70703 l 2.29297,2.29297 -2.29297,2.29297 A 1,1 0 0 0 269.0002,192 a 1,1 0 0 0 1,1 1,1 0 0 0 0.70703,-0.29297 l 2.29297,-2.29297 2.2832,2.28321 a 1,1 0 0 0 0.7168,0.30273 1,1 0 0 0 1,-1 1,1 0 0 0 -0.29297,-0.70703 L 274.41426,189 l 2.28321,-2.2832 A 1,1 0 0 0 277.0002,186 a 1,1 0 0 0 -1,-1 1,1 0 0 0 -0.70703,0.29297 l -2.29297,2.29297 -2.2832,-2.28321 a 1,1 0 0 0 -0.01,-0.01 A 1,1 0 0 0 270,185 Z" display="inline" enable-background="new" opacity="1"/></g></svg>