<svg xmlns="http://www.w3.org/2000/svg" xmlns:svg="http://www.w3.org/2000/svg" xmlns:xlink="http://www.w3.org/1999/xlink" id="svg7564" x="0" y="0" enable-background="new -368 270.6 32 32" version="1.1" viewBox="-368 270.6 32 32" xml:space="preserve"><style type="text/css">.st0{fill:url(#rect2801_1_)}.st0,.st1,.st2{opacity:.4;enable-background:new}.st1{fill:url(#rect3696_1_)}.st2{fill:url(#rect3700_1_)}.st3{fill:url(#rect6994_1_)}.st4,.st5{fill:none;stroke:url(#rect7002_1_)}.st5{stroke:url(#rect6998_1_);stroke-width:1}.st6{opacity:.6}.st7{opacity:.5;fill:#b9b9b9;enable-background:new}.st8{fill:#66c4b6}.st9{fill:#efa143}.st10{fill:#4e9386}.st11{fill:#211d1f}.st12{fill:#16090d}</style><g id="layer1" transform="translate(0,-924.36218)"><g id="g7796"><radialGradient id="rect2801_1_" cx="-766.121" cy="1355.897" r=".886" gradientTransform="matrix(5.0777 0 0 -1.5188 3550.1682 3283.3308)" gradientUnits="userSpaceOnUse"><stop offset="0" stop-color="#181818"/><stop offset="1" stop-color="#181818" stop-opacity="0"/></radialGradient><rect id="rect2801" width="4.5" height="2.7" x="-339.9" y="1222.6" class="st0"/><radialGradient id="rect3696_1_" cx="-892.548" cy="1529.828" r=".886" gradientTransform="matrix(-5.0777 0 0 1.5188 -4896.1265 -1099.5588)" gradientUnits="userSpaceOnUse"><stop offset="0" stop-color="#181818"/><stop offset="1" stop-color="#181818" stop-opacity="0"/></radialGradient><rect id="rect3696" width="4.5" height="2.7" x="-368.6" y="1222.6" class="st1"/><linearGradient id="rect3700_1_" x1="-671.209" x2="-671.209" y1="1315.487" y2="1317.378" gradientTransform="matrix(3.0714 0 0 -1.4286 1709.5717 3104.5938)" gradientUnits="userSpaceOnUse"><stop offset="0" stop-color="#181818" stop-opacity="0"/><stop offset=".5" stop-color="#181818"/><stop offset="1" stop-color="#181818" stop-opacity="0"/></linearGradient><rect id="rect3700" width="24.1" height="2.7" x="-364.1" y="1222.6" class="st2"/></g><linearGradient id="rect6994_1_" x1="-727.203" x2="-717.408" y1="1594.094" y2="1594.094" gradientTransform="matrix(0 2.8022 3.0267 0 -5176.856 3234.5598)" gradientUnits="userSpaceOnUse"><stop offset="0" stop-color="#F4F4F4"/><stop offset="1" stop-color="#DBDBDB"/></linearGradient><path id="rect6994" d="M-337.7,1197.5v26.1c0,0.4-0.3,0.7-0.7,0.7h-27.2c-0.4,0-0.7-0.3-0.7-0.7v-26.1 c0-0.4,0.3-0.7,0.7-0.7h27.2C-338,1196.8-337.7,1197.1-337.7,1197.5z" class="st3"/><linearGradient id="rect7002_1_" x1="-683.317" x2="-667.278" y1="1708.917" y2="1708.917" gradientTransform="matrix(0 1.7414 2.1957 0 -4104.1865 2386.4658)" gradientUnits="userSpaceOnUse"><stop offset="0" stop-color="#FFF"/><stop offset=".018" stop-color="#FFF" stop-opacity=".235"/><stop offset=".983" stop-color="#FFF" stop-opacity=".157"/><stop offset="1" stop-color="#FFF" stop-opacity=".392"/></linearGradient><path id="rect7002" d="M-337.8,1197.5v26.1c0,0.3-0.3,0.5-0.6,0.5h-27.2c-0.3,0-0.6-0.2-0.6-0.5v-26.1 c0-0.3,0.3-0.5,0.6-0.5h27.2C-338.1,1196.9-337.8,1197.2-337.8,1197.5z" class="st4"/><linearGradient id="rect6998_1_" x1="-930.585" x2="-913.977" y1="1705.255" y2="1705.255" gradientTransform="matrix(0 -1.7759 2.2391 0 -4170.2896 -427.3275)" gradientUnits="userSpaceOnUse"><stop offset="0" stop-color="#000" stop-opacity=".318"/><stop offset="1" stop-color="#000" stop-opacity=".24"/></linearGradient><path id="rect6998" d="M-337.5,1223.6v-26.1c0-0.4-0.4-0.8-0.8-0.8h-27.2c-0.5,0-0.8,0.4-0.8,0.8v26.1 c0,0.4,0.4,0.8,0.8,0.8h27.2C-337.9,1224.4-337.5,1224-337.5,1223.6z" class="st5"/><g id="g8367" class="st6"><rect id="rect15710" width="28.6" height=".3" x="-366.3" y="1202.2" class="st7"/><rect id="rect15712" width="28.6" height=".3" x="-366.3" y="1207.8" class="st7"/><rect id="rect16848" width="28.6" height=".3" x="-366.3" y="1213.5" class="st7"/><rect id="rect7153" width="28.6" height=".3" x="-366.3" y="1219.1" class="st7"/></g></g><g><path d="M-347.5,282.1h-15.6c-0.1,0-0.3,0.1-0.4,0.2c-0.1,0.1-0.1,0.3-0.1,0.4c0.4,5.6,2.4,10.5,5.3,13.1 c0.1,0.1,0.2,0.1,0.3,0.1h9.1c0.1,0,0.2,0,0.3-0.1c2.9-2.7,4.9-7.6,5.3-13.1c0-0.2,0-0.3-0.1-0.4c-0.1-0.1-0.2-0.2-0.4-0.2h-2.3" class="st8"/><g><path d="M-356.2,297.8h9.3c0.5,0,0.9-0.4,0.9-1c0-0.5-0.4-1-0.9-1h-13.1c-0.5,0-0.9,0.4-0.9,1c0,0.5,0.4,1,0.9,1h2.5" class="st9"/><path d="M-343.5,284.3c-0.1,0.7-0.2,1.3-0.3,2c1.4,0.1,2.5,1.4,2.5,2.9c0,1.6-1.2,2.9-2.8,2.9c-0.5,0-1.1-0.2-1.5-0.4 c-0.3,0.6-0.6,1.2-1,1.7c0.7,0.5,1.6,0.7,2.5,0.7c2.6,0,4.7-2.2,4.7-4.9C-339.4,286.7-341.2,284.6-343.5,284.3z" class="st9"/></g><path d="M-356.8,295.4c-2.9-2.6-5-6.2-5.5-12.9c0,0,0-0.1,0-0.1h-0.5c-0.1,0-0.3,0.1-0.4,0.2 c-0.1,0.1-0.1,0.2-0.1,0.4c0.4,5.2,2.2,9.9,5,12.4c0.1,0.1,0.2,0.1,0.3,0.1L-356.8,295.4C-356.7,295.5-356.7,295.5-356.8,295.4z" class="st10"/><g><path d="M-343.1,284c0-0.4,0.1-0.8,0.1-1.3c0-0.3-0.1-0.5-0.2-0.7c-0.2-0.2-0.4-0.3-0.7-0.3h-2.3 c-0.2,0-0.4,0.2-0.4,0.4c0,0.2,0.2,0.4,0.4,0.4h2.3c0,0,0.1,0,0.1,0c0,0,0,0.1,0,0.1c0,0.5-0.1,1.1-0.2,1.6c0,0,0,0,0,0 c-0.1,0.7-0.2,1.3-0.3,1.9c0,0,0,0,0,0c-0.4,1.9-1,3.6-1.7,5.1c0,0,0,0,0,0c-0.3,0.6-0.6,1.2-0.9,1.7c0,0,0,0,0,0 c-0.6,0.9-1.3,1.7-2,2.4c0,0,0,0-0.1,0h-9.1c0,0-0.1,0-0.1,0c-2.8-2.6-4.8-7.4-5.1-12.8c0,0,0-0.1,0-0.1c0,0,0.1,0,0.1,0h15.6 c0.2,0,0.4-0.2,0.4-0.4c0-0.2-0.2-0.4-0.4-0.4h-15.6c-0.3,0-0.5,0.1-0.7,0.3c-0.2,0.2-0.3,0.4-0.2,0.7c0.4,5.3,2.2,10,4.8,12.8 h-0.8c-0.7,0-1.3,0.6-1.3,1.4s0.6,1.4,1.3,1.4h2.5c0.2,0,0.4-0.2,0.4-0.4c0-0.2-0.2-0.4-0.4-0.4h-2.5c-0.3,0-0.5-0.2-0.5-0.5 c0-0.3,0.2-0.5,0.5-0.5h2h9.1h2c0.3,0,0.5,0.2,0.5,0.5c0,0.3-0.2,0.5-0.5,0.5h-9.3c-0.2,0-0.4,0.2-0.4,0.4c0,0.2,0.2,0.4,0.4,0.4 h9.3c0.7,0,1.3-0.6,1.3-1.4s-0.6-1.4-1.3-1.4h-0.8c0.5-0.5,0.9-1.1,1.3-1.7c0.7,0.4,1.5,0.6,2.3,0.6c2.8,0,5.1-2.4,5.1-5.3 C-339,286.6-340.8,284.5-343.1,284z M-343.5,286.7c1,0.3,1.8,1.3,1.8,2.4c0,1.4-1.1,2.5-2.4,2.5c-0.3,0-0.7-0.1-1-0.2 C-344.4,290-343.9,288.4-343.5,286.7z M-344.1,293.6c-0.7,0-1.3-0.2-1.9-0.5c0,0,0,0,0,0c0,0,0-0.1,0-0.1c0.1-0.1,0.1-0.2,0.2-0.3 c0,0,0,0,0,0c0.1-0.2,0.2-0.4,0.3-0.6c0.4,0.2,0.9,0.3,1.3,0.3c1.7,0,3.2-1.5,3.2-3.3c0-0.8-0.3-1.6-0.8-2.2c-0.4-0.5-1-0.8-1.6-1 c0,0,0,0,0,0c0.1-0.4,0.1-0.8,0.2-1.1c1.9,0.4,3.4,2.2,3.4,4.3C-339.8,291.6-341.8,293.6-344.1,293.6z" class="st11"/><path d="M-353.6,277.1c-0.6,0.5-0.9,1.1-0.8,1.8c0,1.1,0.8,1.8,0.9,1.8c0.1,0.1,0.2,0.1,0.3,0.1c0.1,0,0.2,0,0.3-0.1 c0.1-0.2,0.1-0.4,0-0.6c0,0-0.6-0.5-0.6-1.2c0-0.4,0.2-0.8,0.6-1.2c0.6-0.5,0.9-1.1,0.8-1.8c0-1.1-0.8-1.8-0.9-1.8 c-0.2-0.2-0.4-0.1-0.6,0s-0.1,0.4,0,0.6c0,0,0.6,0.5,0.6,1.2C-353,276.3-353.2,276.7-353.6,277.1z" class="st12"/><path d="M-351,278c-0.4,0.4-0.6,0.8-0.6,1.3c0,0.8,0.6,1.3,0.6,1.3c0.1,0.1,0.2,0.1,0.3,0.1c0.1,0,0.2,0,0.3-0.1 c0.1-0.2,0.1-0.4,0-0.6c0,0-0.3-0.3-0.4-0.7c0-0.2,0.1-0.5,0.4-0.7c0.4-0.4,0.6-0.8,0.6-1.3c0-0.8-0.6-1.3-0.6-1.3 c-0.2-0.2-0.4-0.1-0.5,0c-0.1,0.2-0.1,0.4,0,0.6c0,0,0.3,0.3,0.4,0.7C-350.6,277.6-350.7,277.8-351,278z" class="st12"/><path d="M-356.7,278c-0.4,0.4-0.6,0.8-0.6,1.3c0,0.8,0.6,1.3,0.6,1.3c0.1,0.1,0.2,0.1,0.3,0.1c0.1,0,0.2,0,0.3-0.1 c0.1-0.2,0.1-0.4,0-0.6c0,0-0.3-0.3-0.4-0.7c0-0.2,0.1-0.5,0.4-0.7c0.4-0.4,0.6-0.8,0.6-1.3c0-0.8-0.6-1.3-0.6-1.3 c-0.2-0.2-0.4-0.1-0.5,0c-0.1,0.2-0.1,0.4,0,0.6c0,0,0.3,0.3,0.4,0.7C-356.3,277.6-356.5,277.8-356.7,278z" class="st12"/></g></g></svg>